<svg width="1200" height="900" viewBox="0 0 1200 900" fill="none" xmlns="http://www.w3.org/2000/svg">
  <rect width="1200" height="900" fill="#F6EFE6"/>
  <circle cx="155" cy="140" r="120" fill="#EAD8C4"/>
  <circle cx="1040" cy="760" r="180" fill="#E2C59F" fill-opacity="0.45"/>
  <circle cx="1030" cy="150" r="110" fill="#E9D7BC" fill-opacity="0.5"/>

  <g transform="rotate(-8 330 540)">
    <rect x="150" y="300" width="360" height="430" rx="22" fill="#C4945C"/>
    <path d="M150 330C150 313.431 163.431 300 180 300H480C496.569 300 510 313.431 510 330V350L330 500L150 350V330Z" fill="#B57F49"/>
    <path d="M150 352L330 500L510 352V700C510 716.569 496.569 730 480 730H180C163.431 730 150 716.569 150 700V352Z" fill="#B8844E"/>
    <path d="M150 355L330 500L510 355" stroke="#9F6B38" stroke-width="8" stroke-linecap="round"/>
  </g>

  <g transform="rotate(6 655 455)">
    <rect x="455" y="180" width="410" height="520" rx="26" fill="#FFFDF9"/>
    <rect x="487" y="214" width="346" height="452" rx="16" fill="#FBF6F0" stroke="#E6D3BC" stroke-width="3"/>
    <path d="M535 280C575 238 647 232 688 284C731 235 804 242 838 295" stroke="#B88957" stroke-width="5" stroke-linecap="round"/>
    <path d="M528 596C579 547 645 545 692 595C742 544 809 550 847 602" stroke="#B88957" stroke-width="5" stroke-linecap="round"/>
    <text x="660" y="320" text-anchor="middle" fill="#7A2036" font-size="24" font-family="Georgia, serif" letter-spacing="5">YOU'RE INVITED</text>
    <text x="660" y="402" text-anchor="middle" fill="#2F3852" font-size="72" font-family="Georgia, serif">P &amp; A</text>
    <text x="660" y="470" text-anchor="middle" fill="#A47A49" font-size="22" font-family="Georgia, serif">to celebrate a wedding day</text>
    <text x="660" y="572" text-anchor="middle" fill="#5B6478" font-size="24" font-family="Georgia, serif">Jaffna · Celebration Suite</text>
  </g>

  <g transform="rotate(12 905 612)">
    <rect x="860" y="450" width="200" height="250" rx="20" fill="#FFFDF9" stroke="#E7D8C4" stroke-width="3"/>
    <rect x="890" y="490" width="140" height="6" rx="3" fill="#D8B282"/>
    <rect x="890" y="528" width="120" height="6" rx="3" fill="#E6C7A1"/>
    <rect x="890" y="566" width="108" height="6" rx="3" fill="#E6C7A1"/>
    <rect x="890" y="604" width="126" height="6" rx="3" fill="#E6C7A1"/>
    <rect x="890" y="642" width="92" height="6" rx="3" fill="#E6C7A1"/>
  </g>

  <g>
    <circle cx="185" cy="760" r="54" fill="#B4536A" fill-opacity="0.18"/>
    <circle cx="228" cy="792" r="36" fill="#D8A0AA" fill-opacity="0.25"/>
    <circle cx="1035" cy="300" r="60" fill="#A75E73" fill-opacity="0.15"/>
  </g>
</svg>
